<svg width="69" height="92" viewBox="0 0 69 92" fill="none" xmlns="http://www.w3.org/2000/svg">
<g filter="url(#filter0_d_74_88)">
<rect x="4" width="61" height="84" rx="5" fill="#1E1122"/>
<path d="M43.12 27.68H55.7V28.9H43.12V27.68ZM43.12 24.48H55.7V25.72H43.12V24.48ZM42.32 30.88H56.46V32.2H42.32V30.88ZM56.14 30.88H57.66C57.66 30.88 57.64 31.32 57.62 31.54C57.32 35.76 57.04 37.4 56.48 38.02C56.12 38.4 55.74 38.54 55.18 38.58C54.66 38.62 53.64 38.62 52.62 38.56C52.6 38.16 52.44 37.56 52.22 37.16C53.2 37.28 54.14 37.28 54.5 37.28C54.86 37.28 55.04 37.24 55.2 37.08C55.62 36.66 55.88 35.14 56.14 31.12V30.88ZM48.3 33.62L49.5 33.36C50.06 34.46 50.58 35.96 50.74 36.88L49.5 37.22C49.34 36.3 48.84 34.78 48.3 33.62ZM51.54 33.32L52.64 32.88C53.36 33.7 54.1 34.84 54.42 35.6L53.26 36.1C52.96 35.34 52.22 34.16 51.54 33.32ZM44.86 33.76L46.14 33.54C46.5 34.82 46.78 36.44 46.84 37.54L45.46 37.76C45.46 36.68 45.18 35.04 44.86 33.76ZM41.98 33.06L43.3 33.42C42.92 35.3 42.3 37.26 40.94 38.44L39.72 37.66C40.98 36.6 41.66 34.8 41.98 33.06ZM48.46 21.9H49.94V31.42H48.46V21.9ZM42.32 21.18H56.4V22.5H43.78V31.5H42.32V21.18ZM42.92 53.82C42.92 56.94 42.64 61.48 40.86 64.5C40.62 64.26 39.98 63.84 39.64 63.68C41.32 60.82 41.46 56.76 41.46 53.82V47.92H42.92V53.82ZM57.86 47.92V49.26H42.2V47.92H57.86ZM50.34 46.22V48.78H48.8V46.22H50.34ZM57.36 51.32V56.36H42.38V55.1H55.92V52.58H42.38V51.32H57.36ZM52.34 62.56C52.34 63.12 52.48 63.24 53.26 63.24C53.62 63.24 55.5 63.24 55.98 63.24C56.62 63.24 56.76 62.92 56.82 61.1C57.12 61.34 57.7 61.56 58.1 61.64C57.94 63.9 57.52 64.5 56.12 64.5C55.74 64.5 53.46 64.5 53.1 64.5C51.34 64.5 50.9 64.08 50.9 62.56V56.82H52.34V62.56ZM57.42 58.62C55.94 59.4 53.82 60.1 51.98 60.56C51.9 60.28 51.7 59.82 51.52 59.52C53.24 59.02 55.22 58.28 56.28 57.6L57.42 58.62ZM42.56 63.14C44.44 62.92 47.32 62.52 50.14 62.1L50.2 63.34C47.54 63.78 44.74 64.2 42.74 64.5L42.56 63.14ZM45.96 56.8V63.56H44.54V56.8H45.96ZM49.94 58.68V59.94H45.2V58.68H49.94ZM52.44 49V55.7H51.02V49H52.44ZM47.54 49V55.7H46.14V49H47.54Z" fill="white"/>
<path d="M23.14 14.28C23.1 14.74 23.06 15.42 23.04 15.9C22.78 24.06 20.58 27.8 16.64 30.54L15.18 29.36C15.82 29.02 16.62 28.46 17.22 27.9C19.72 25.64 21.36 22.26 21.4 15.94C21.4 15.48 21.36 14.74 21.28 14.28H23.14ZM30.1 18.44C30.04 18.78 30 19.14 29.98 19.4C29.92 21.34 29.66 27.14 28.76 29.06C28.36 29.92 27.72 30.28 26.62 30.28C25.62 30.28 24.46 30.22 23.42 30.14L23.22 28.48C24.3 28.62 25.34 28.72 26.2 28.72C26.76 28.72 27.14 28.54 27.36 28.06C28.12 26.52 28.38 21.6 28.38 19.46H17.84C17.04 19.46 16.24 19.48 15.52 19.54V17.86C16.22 17.92 17.04 17.96 17.82 17.96H27.7C28.24 17.96 28.62 17.92 28.96 17.86L30.1 18.44ZM30.52 36.66C30.42 36.86 30.28 37.4 30.26 37.6C29.9 39.96 29.48 42.82 28.02 45.08C26.4 47.62 23.68 49.66 20.46 50.7L19.1 49.34C22.04 48.54 24.9 46.8 26.52 44.24C27.66 42.48 28.22 39.92 28.42 37.56C27.3 37.56 18.82 37.56 17.4 37.56C17.4 38.12 17.4 40.92 17.4 41.56C17.4 41.84 17.4 42.34 17.44 42.84H15.64C15.68 42.36 15.7 41.94 15.7 41.56C15.7 40.92 15.7 38.14 15.7 37.28C15.7 36.82 15.68 36.38 15.64 35.96C16.16 36 16.9 36 17.76 36C18.44 36 26.9 36 28.04 36C28.46 36 28.94 35.98 29.3 35.9L30.52 36.66ZM14.72 62.78C18.18 61.86 21.22 60.44 23.44 59.06C25.54 57.74 27.54 56.02 28.92 54.34L30.26 55.6C28.54 57.38 26.44 59.06 24.1 60.52C21.9 61.88 18.72 63.34 15.5 64.34L14.72 62.78ZM23.12 59.88L24.84 59.36V68.5C24.84 69.24 24.88 70.24 24.98 70.62H23C23.06 70.24 23.12 69.24 23.12 68.5V59.88Z" fill="white"/>
<rect x="4.5" y="0.5" width="60" height="83" rx="4.5" stroke="#1F1F1F"/>
</g>
<defs>
<filter id="filter0_d_74_88" x="0" y="0" width="69" height="92" filterUnits="userSpaceOnUse" color-interpolation-filters="sRGB">
<feFlood flood-opacity="0" result="BackgroundImageFix"/>
<feColorMatrix in="SourceAlpha" type="matrix" values="0 0 0 0 0 0 0 0 0 0 0 0 0 0 0 0 0 0 127 0" result="hardAlpha"/>
<feOffset dy="4"/>
<feGaussianBlur stdDeviation="2"/>
<feComposite in2="hardAlpha" operator="out"/>
<feColorMatrix type="matrix" values="0 0 0 0 0 0 0 0 0 0 0 0 0 0 0 0 0 0 0.25 0"/>
<feBlend mode="normal" in2="BackgroundImageFix" result="effect1_dropShadow_74_88"/>
<feBlend mode="normal" in="SourceGraphic" in2="effect1_dropShadow_74_88" result="shape"/>
</filter>
</defs>
</svg>
